HIERARCHY
ROOT Hips
{
	OFFSET 0.000000 103.266502 0.000000
	CHANNELS 6 Xposition Yposition Zposition Xrotation Yrotation Zrotation 
	JOINT Spine
	{
		OFFSET -0.002400 12.777504 0.315300
		CHANNELS 3 Xrotation Yrotation Zrotation
		JOINT Spine1
		{
			OFFSET -0.002067 5.816869 0.032633
			CHANNELS 3 Xrotation Yrotation Zrotation
			JOINT Spine1_split
			{
				OFFSET -0.002067 5.816869 0.032633
				CHANNELS 3 Xrotation Yrotation Zrotation
				JOINT Spine2
				{
					OFFSET -0.002067 5.816869 0.032633
					CHANNELS 3 Xrotation Yrotation Zrotation
					JOINT Neck
					{
						OFFSET -0.003700 21.199493 -0.826900
						CHANNELS 3 Xrotation Yrotation Zrotation
						JOINT Head
						{
							OFFSET 0.000000 20.442200 4.834800
							CHANNELS 3 Xrotation Yrotation Zrotation
							JOINT HeadTop_End
							{
								OFFSET 0.000000 34.668396 4.968400
								CHANNELS 3 Xrotation Yrotation Zrotation
								End Site
								{
									OFFSET 0.000000 0.000000 0.000000
								}
							}
						}
					}
					JOINT LeftShoulder
					{
						OFFSET 3.288150 8.794197 -1.372250
						CHANNELS 3 Xrotation Yrotation Zrotation
						JOINT LeftShoulder_split
						{
							OFFSET 3.288150 8.794197 -1.372250
							CHANNELS 3 Xrotation Yrotation Zrotation
							JOINT LeftArm
							{
								OFFSET 11.953299 -2.279007 -0.146200
								CHANNELS 3 Xrotation Yrotation Zrotation
								JOINT LeftForeArm
								{
									OFFSET 18.448900 0.000000 0.000000
									CHANNELS 3 Xrotation Yrotation Zrotation
									JOINT LeftHand
									{
										OFFSET 29.527798 0.000000 0.000000
										CHANNELS 3 Xrotation Yrotation Zrotation
										JOINT LeftHandThumb1
										{
											OFFSET 10.739754 -2.369614 9.225399
											CHANNELS 3 Xrotation Yrotation Zrotation
											JOINT LeftHandThumb2
											{
												OFFSET 4.926170 -2.844131 2.844125
												CHANNELS 3 Xrotation Yrotation Zrotation
												JOINT LeftHandThumb3
												{
													OFFSET 4.614891 -2.664413 2.664409
													CHANNELS 3 Xrotation Yrotation Zrotation
													JOINT LeftHandThumb4
													{
														OFFSET 4.432465 -2.559082 2.559083
														CHANNELS 3 Xrotation Yrotation Zrotation
														End Site
														{
															OFFSET 0.000000 0.000000 0.000000
														}
													}
												}
											}
										}
										JOINT LeftHandIndex1
										{
											OFFSET 26.467674 0.187653 6.405298
											CHANNELS 3 Xrotation Yrotation Zrotation
											JOINT LeftHandIndex2
											{
												OFFSET 8.792900 0.000000 0.000000
												CHANNELS 3 Xrotation Yrotation Zrotation
												JOINT LeftHandIndex3
												{
													OFFSET 10.075203 0.000000 0.000000
													CHANNELS 3 Xrotation Yrotation Zrotation
													End Site
													{
														OFFSET 0.000000 0.000000 0.000000
													}
												}
											}
										}
										JOINT LeftHandMiddle1
										{
											OFFSET 25.764404 0.000000 0.000000
											CHANNELS 3 Xrotation Yrotation Zrotation
											JOINT LeftHandMiddle2
											{
												OFFSET 9.393974 0.000000 0.000000
												CHANNELS 3 Xrotation Yrotation Zrotation
												JOINT LeftHandMiddle3
												{
													OFFSET 10.771950 0.000000 0.000000
													CHANNELS 3 Xrotation Yrotation Zrotation
													End Site
													{
														OFFSET 0.000000 0.000000 0.000000
													}
												}
											}
										}
										JOINT LeftHandRing1
										{
											OFFSET 24.660927 0.144547 -6.225808
											CHANNELS 3 Xrotation Yrotation Zrotation
											JOINT LeftHandRing2
											{
												OFFSET 9.393799 0.000000 0.000000
												CHANNELS 3 Xrotation Yrotation Zrotation
												JOINT LeftHandRing3
												{
													OFFSET 9.928497 0.000000 0.000000
													CHANNELS 3 Xrotation Yrotation Zrotation
													End Site
													{
														OFFSET 0.000000 0.000000 0.000000
													}
												}
											}
										}
										JOINT LeftHandPinky1
										{
											OFFSET 23.655350 0.125290 -12.815412
											CHANNELS 3 Xrotation Yrotation Zrotation
											JOINT LeftHandPinky2
											{
												OFFSET 8.425102 0.000000 0.000000
												CHANNELS 3 Xrotation Yrotation Zrotation
												JOINT LeftHandPinky3
												{
													OFFSET 8.147003 0.000000 0.000000
													CHANNELS 3 Xrotation Yrotation Zrotation
													End Site
													{
														OFFSET 0.000000 0.000000 0.000000
													}
												}
											}
										}
									}
								}
							}
						}
					}
					JOINT RightShoulder
					{
						OFFSET -3.249400 8.794197 -1.372250
						CHANNELS 3 Xrotation Yrotation Zrotation
						JOINT RightShoulder_split
						{
							OFFSET -3.249400 8.794197 -1.372250
							CHANNELS 3 Xrotation Yrotation Zrotation
							JOINT RightArm
							{
								OFFSET -11.953299 -2.279007 -0.146200
								CHANNELS 3 Xrotation Yrotation Zrotation
								JOINT RightForeArm
								{
									OFFSET -18.448900 0.000000 0.000000
									CHANNELS 3 Xrotation Yrotation Zrotation
									JOINT RightHand
									{
										OFFSET -29.527802 0.000000 0.000000
										CHANNELS 3 Xrotation Yrotation Zrotation
										JOINT RightHandThumb1
										{
											OFFSET -10.739754 -2.369614 9.225399
											CHANNELS 3 Xrotation Yrotation Zrotation
											JOINT RightHandThumb2
											{
												OFFSET -4.926170 -2.844131 2.844125
												CHANNELS 3 Xrotation Yrotation Zrotation
												JOINT RightHandThumb3
												{
													OFFSET -4.614891 -2.664413 2.664409
													CHANNELS 3 Xrotation Yrotation Zrotation
													JOINT RightHandThumb4
													{
														OFFSET -4.432465 -2.559082 2.559083
														CHANNELS 3 Xrotation Yrotation Zrotation
														End Site
														{
															OFFSET 0.000000 0.000000 0.000000
														}
													}
												}
											}
										}
										JOINT RightHandIndex1
										{
											OFFSET -26.467674 0.187653 6.405298
											CHANNELS 3 Xrotation Yrotation Zrotation
											JOINT RightHandIndex2
											{
												OFFSET -8.792900 0.000000 0.000000
												CHANNELS 3 Xrotation Yrotation Zrotation
												JOINT RightHandIndex3
												{
													OFFSET -10.075203 0.000000 0.000000
													CHANNELS 3 Xrotation Yrotation Zrotation
													End Site
													{
														OFFSET 0.000000 0.000000 0.000000
													}
												}
											}
										}
										JOINT RightHandMiddle1
										{
											OFFSET -25.764404 0.000000 0.000000
											CHANNELS 3 Xrotation Yrotation Zrotation
											JOINT RightHandMiddle2
											{
												OFFSET -9.393974 0.000000 0.000000
												CHANNELS 3 Xrotation Yrotation Zrotation
												JOINT RightHandMiddle3
												{
													OFFSET -10.771950 0.000000 0.000000
													CHANNELS 3 Xrotation Yrotation Zrotation
													End Site
													{
														OFFSET 0.000000 0.000000 0.000000
													}
												}
											}
										}
										JOINT RightHandRing1
										{
											OFFSET -24.660927 0.144547 -6.225808
											CHANNELS 3 Xrotation Yrotation Zrotation
											JOINT RightHandRing2
											{
												OFFSET -9.393799 0.000000 0.000000
												CHANNELS 3 Xrotation Yrotation Zrotation
												JOINT RightHandRing3
												{
													OFFSET -9.928497 0.000000 0.000000
													CHANNELS 3 Xrotation Yrotation Zrotation
													End Site
													{
														OFFSET 0.000000 0.000000 0.000000
													}
												}
											}
										}
										JOINT RightHandPinky1
										{
											OFFSET -23.655350 0.125290 -12.815412
											CHANNELS 3 Xrotation Yrotation Zrotation
											JOINT RightHandPinky2
											{
												OFFSET -8.425102 0.000000 0.000000
												CHANNELS 3 Xrotation Yrotation Zrotation
												JOINT RightHandPinky3
												{
													OFFSET -8.147003 0.000000 0.000000
													CHANNELS 3 Xrotation Yrotation Zrotation
													End Site
													{
														OFFSET 0.000000 0.000000 0.000000
													}
												}
											}
										}
									}
								}
							}
						}
					}
				}
			}
		}
	}
	JOINT LeftUpLeg
	{
		OFFSET 11.394100 -6.187798 -0.413800
		CHANNELS 3 Xrotation Yrotation Zrotation
		JOINT LeftLeg
		{
			OFFSET 0.430247 -32.302673 3.732800
			CHANNELS 3 Xrotation Yrotation Zrotation
			JOINT LeftFoot
			{
				OFFSET -0.430247 -48.264931 -6.423300
				CHANNELS 3 Xrotation Yrotation Zrotation
				JOINT LeftToeBase
				{
					OFFSET 4.230900 -16.068199 23.438400
					CHANNELS 3 Xrotation Yrotation Zrotation
					JOINT LeftToe_End
					{
						OFFSET 4.510700 0.695400 19.974600
						CHANNELS 3 Xrotation Yrotation Zrotation
						End Site
						{
							OFFSET 0.000000 0.000000 0.000000
						}
					}
				}
			}
		}
	}
	JOINT RightUpLeg
	{
		OFFSET -11.333700 -6.187798 -0.413800
		CHANNELS 3 Xrotation Yrotation Zrotation
		JOINT RightLeg
		{
			OFFSET -0.430392 -32.302628 3.733000
			CHANNELS 3 Xrotation Yrotation Zrotation
			JOINT RightFoot
			{
				OFFSET 0.430392 -48.264973 -6.423500
				CHANNELS 3 Xrotation Yrotation Zrotation
				JOINT RightToeBase
				{
					OFFSET -4.230900 -16.068199 23.438400
					CHANNELS 3 Xrotation Yrotation Zrotation
					JOINT RightToe_End
					{
						OFFSET -4.510700 0.695400 19.974600
						CHANNELS 3 Xrotation Yrotation Zrotation
						End Site
						{
							OFFSET 0.000000 0.000000 0.000000
						}
					}
				}
			}
		}
	}
}
MOTION
Frames: 6
Frame Time: 0.016667
-12.643559 77.102119 -4.425947 -2.898831 4.332216 0.322006 8.954478 0.585098 -1.752070 3.966864 0.230936 -3.978306 0.000000 0.000000 0.000000 3.989347 0.231038 -3.977844 5.038292 -8.338510 11.033144 -0.460162 -3.911050 -10.648854 -0.000001 -0.000000 0.000000 -8.173988 -31.527982 -8.252498 0.000000 0.000000 0.000000 -31.588559 -14.766828 -24.997727 -124.594508 -59.639682 -127.258691 -8.365616 -5.660511 17.684034 15.614803 18.236711 11.488221 11.421614 30.331326 -11.339185 2.081499 57.074304 29.941647 -0.000004 0.000001 0.000000 19.961286 12.194204 -48.814396 -0.280071 1.062286 -128.835208 0.000001 0.000002 0.000001 7.703393 10.532965 -62.910899 0.990468 -0.061683 -121.377352 -0.000001 0.000004 0.000000 0.948598 15.112215 -68.414310 0.879501 -0.210884 -117.521218 -0.000001 -0.000002 0.000002 -16.314202 19.696891 -71.347692 0.695855 -0.323408 -142.818436 -0.000000 -0.000001 0.000002 -8.947958 32.923247 10.353825 0.000000 0.000000 0.000000 -34.168421 8.238679 31.408867 50.102781 118.312318 -44.867455 -7.430157 8.835779 -25.387569 17.261071 -16.812982 -12.690450 10.409531 -24.931147 14.714517 -0.718656 -60.920028 -34.719160 -0.000001 -0.000000 -0.000003 19.952624 -0.387277 46.095932 -0.057018 -1.141819 137.151537 -0.000001 -0.000002 -0.000001 6.186494 -2.518738 61.008015 0.941181 0.201315 126.871420 0.000001 -0.000001 0.000001 0.195743 -7.578816 62.006206 0.865292 0.303838 119.921456 0.000000 -0.000001 -0.000003 -17.990698 -11.912557 65.482670 0.676375 0.402122 146.296109 0.000000 0.000000 -0.000001 -69.850869 -8.771302 5.303822 61.221561 -19.841775 -9.248594 7.799543 -4.056945 -4.352913 -0.337108 1.263190 0.812090 0.000000 0.000000 -0.000000 -22.877165 -3.906920 -2.030781 83.437359 -14.539007 -7.573920 -34.232806 -0.988310 18.243734 -32.417574 -0.294224 -1.847551 -0.000000 -0.000000 -0.000000 
-12.928026 79.009544 -4.140356 -0.958133 5.933583 0.578996 8.258511 0.417151 -1.930782 2.568485 -0.078457 -4.312727 0.000000 0.000000 0.000000 2.590949 -0.078386 -4.312242 0.090885 -9.587591 9.553649 -0.716501 -4.945426 -10.676962 -0.000000 -0.000000 -0.000000 -8.485027 -28.820475 -9.252593 0.000000 0.000000 0.000000 -25.663304 -15.710618 -18.176242 -134.370366 -56.428964 -136.822650 -8.621292 -3.463228 20.162329 14.821205 17.379386 11.215546 10.269857 28.734855 -10.694090 3.816898 51.183529 25.752747 -0.000004 -0.000001 -0.000004 16.649757 9.371641 -44.593929 -0.351037 0.994008 -120.047364 -0.000000 0.000001 0.000000 6.076238 7.776701 -58.086838 1.006503 0.042507 -113.465677 0.000001 -0.000005 -0.000001 0.133091 12.601306 -64.387203 0.867708 -0.128592 -110.199795 0.000000 0.000001 0.000001 -15.415759 16.999642 -68.075000 0.715032 -0.239991 -133.253234 -0.000001 0.000003 -0.000005 -8.020591 29.104095 7.655828 0.000000 0.000000 0.000000 -24.846579 11.304229 29.134571 32.701993 121.145016 -30.427448 -8.088099 5.625849 -27.490531 15.061786 -14.238121 -12.274942 10.652961 -26.601743 13.514503 0.666352 -59.059526 -32.370158 -0.000002 0.000001 -0.000000 19.237416 0.147147 44.669956 -0.156362 -1.095419 130.776006 0.000001 -0.000002 0.000000 5.981511 -1.717681 59.670547 0.967289 0.104963 121.723670 -0.000000 -0.000001 -0.000001 0.026732 -7.126155 61.895331 0.865374 0.227836 115.797634 -0.000001 0.000000 -0.000000 -16.993726 -12.001653 65.678587 0.697927 0.337681 141.340055 -0.000002 0.000002 0.000001 -68.434910 -8.461518 3.535286 57.077613 -19.564781 -8.385714 8.410571 -3.813656 -4.962083 -0.334244 1.261616 0.819571 -0.000000 -0.000000 -0.000000 -21.895679 -4.946621 -1.676868 78.817576 -14.662888 -7.739173 -34.063017 -0.547748 17.085167 -30.861715 -0.234533 -1.804141 -0.000000 -0.000000 0.000000 
-13.174177 81.044441 -3.787614 1.151490 7.431044 0.749270 7.510879 0.218452 -2.090928 1.064140 -0.427329 -4.603813 0.000000 0.000000 0.000000 1.086616 -0.427256 -4.603350 -5.694804 -10.493378 7.608347 -0.030810 -6.025159 -10.033725 -0.000000 -0.000000 -0.000000 -8.676804 -25.765728 -10.075464 0.000000 0.000000 0.000000 -18.326601 -15.006477 -10.670904 -143.139960 -54.309553 -144.303838 -8.338690 -4.453243 22.583582 13.542274 15.852891 10.916843 8.824504 26.648357 -9.992332 4.898071 43.714724 21.422453 -0.000000 -0.000003 -0.000004 13.337086 4.780011 -39.370747 -0.419281 0.892995 -109.137742 0.000002 0.000002 0.000001 4.808482 3.926224 -52.134298 1.003535 0.176448 -103.588841 0.000000 0.000000 0.000001 -0.215174 9.437564 -59.277887 0.838039 -0.028822 -100.964601 0.000000 0.000001 -0.000000 -13.745433 13.901466 -63.510500 0.719984 -0.132188 -121.198756 -0.000001 0.000002 0.000001 -7.681962 25.388554 6.444246 0.000000 0.000000 0.000000 -12.655760 14.347784 25.486347 5.490623 121.793611 -9.171637 -8.726466 2.964766 -28.818675 11.624277 -10.440134 -11.249722 11.086797 -29.256210 11.708960 2.424956 -56.368131 -29.269177 0.000001 0.000000 -0.000000 18.267571 0.888048 42.688525 -0.289863 -1.006613 121.263370 0.000001 0.000002 0.000003 5.769979 -0.545426 57.834866 0.983936 -0.035232 114.143273 -0.000001 -0.000001 -0.000001 -0.199854 -6.375996 61.868844 0.850967 0.117616 109.628764 -0.000000 -0.000001 -0.000001 -15.494096 -12.026840 66.080864 0.715343 0.240919 133.925967 -0.000002 0.000000 0.000002 -66.826605 -8.300305 1.698015 52.584677 -19.199385 -7.282157 9.074195 -3.541218 -5.650312 -0.333051 1.259874 0.822562 -0.000000 0.000002 -0.000000 -21.124593 -5.576390 -1.049341 74.008303 -15.036501 -7.995539 -33.240529 -0.163758 16.209538 -29.760282 -0.175531 -1.740589 0.000000 -0.000001 -0.000000 
-13.471908 84.515106 -3.036058 4.076619 9.190720 1.046037 6.668169 -0.025810 -2.264897 -0.631354 -0.805339 -4.887749 0.000000 0.000000 0.000000 -0.608884 -0.805301 -4.887262 -14.077579 -10.176104 5.940330 3.281337 -6.836341 -9.520004 -0.000000 0.000000 -0.000001 -8.036796 -21.485207 -9.500181 0.000000 0.000000 0.000000 -14.726086 -11.896513 -5.740301 -146.957107 -62.475255 -145.446283 -7.887421 -6.581193 25.772380 11.852986 13.783168 10.547944 7.134276 24.125480 -9.310037 5.160867 34.926845 17.070577 -0.000002 -0.000000 -0.000000 10.702059 -1.002497 -33.147386 -0.468601 0.763122 -96.351949 -0.000001 0.000001 -0.000001 4.375457 -0.409741 -44.950694 0.966630 0.328683 -91.921055 -0.000003 0.000002 -0.000006 0.232669 6.121636 -52.931965 0.782587 0.078098 -89.957348 0.000002 -0.000002 0.000002 -11.103508 10.841506 -57.415868 0.696326 -0.010323 -106.970345 -0.000000 -0.000000 -0.000000 -7.296019 21.402405 5.049866 0.000000 0.000000 0.000000 -4.773012 12.248321 21.979733 -14.800916 116.232485 8.083245 -8.901747 3.776055 -31.299584 4.230389 -1.918577 -6.476954 12.275604 -36.017910 7.415588 5.146826 -51.012723 -23.813417 -0.000002 0.000001 0.000001 16.370758 2.829262 38.403787 -0.505734 -0.751328 100.224768 -0.000002 -0.000001 -0.000000 5.422004 2.068111 53.814384 0.933728 -0.307691 97.586990 0.000001 -0.000000 0.000001 -0.820411 -4.841760 62.096959 0.758524 -0.091749 96.422634 -0.000000 -0.000001 -0.000003 -12.071951 -12.450873 67.577386 0.690987 0.049066 118.162286 0.000001 0.000000 0.000001 -62.979617 -8.327494 -0.910640 44.656917 -18.785595 -5.297074 10.182540 -2.643237 -6.798360 -0.343585 1.257818 0.794577 -0.000000 0.000000 -0.000000 -19.162021 -6.302432 -0.257689 65.529060 -15.617053 -8.684527 -31.123318 0.451567 15.267474 -28.332255 -0.147401 -1.654247 -0.000001 0.000001 0.000000 
-13.705011 87.904396 -1.981382 6.228558 10.472093 1.326723 6.030095 -0.118240 -2.392958 -1.909143 -0.850893 -5.060079 0.000000 0.000000 0.000000 -1.886654 -0.850849 -5.059594 -22.734686 -9.234638 4.477811 7.334334 -6.985444 -9.210165 -0.000001 -0.000000 0.000001 -7.298172 -17.415328 -8.034951 0.000000 0.000000 0.000000 -14.064191 -8.494673 -2.706168 -146.039936 -74.946238 -142.967853 -7.310164 -8.894784 29.046131 9.845154 11.305849 10.066926 5.274782 21.279699 -8.727061 4.590190 25.276823 12.706265 -0.000003 0.000004 0.000002 9.306996 -7.102851 -25.959343 -0.483367 0.618125 -82.175126 -0.000000 0.000001 -0.000000 5.043943 -4.417637 -36.553000 0.885466 0.477970 -78.862621 -0.000000 0.000002 0.000001 1.619671 3.295807 -45.321280 0.697550 0.176595 -77.542926 -0.000001 -0.000000 -0.000002 -7.487084 8.438609 -49.745808 0.634744 0.107087 -91.137352 0.000002 0.000004 0.000001 -7.063744 17.810823 3.824991 0.000000 0.000000 0.000000 -0.653492 7.660497 19.417000 -39.660074 109.687927 33.038667 -8.721390 6.408974 -33.982602 -4.074340 5.658243 -0.221947 12.481043 -41.041053 2.813776 7.071960 -42.950016 -18.124004 -0.000001 0.000001 0.000001 14.404492 5.404225 33.012568 -0.579279 -0.409320 75.800415 -0.000002 0.000001 -0.000001 5.435005 5.123443 47.951613 0.767624 -0.537041 77.829152 0.000002 -0.000000 0.000000 -0.931450 -2.953523 60.312995 0.576728 -0.262049 80.137366 0.000000 -0.000000 0.000000 -7.802672 -11.934103 67.045355 0.583406 -0.127772 98.504244 -0.000001 0.000001 -0.000001 -57.964879 -8.790276 -2.889100 36.383502 -18.100884 -3.370699 11.355359 -2.164768 -7.776375 -0.338886 1.253683 0.806882 -0.000000 0.000000 0.000000 -16.295141 -7.167722 0.515035 56.691284 -16.262325 -9.860226 -28.114309 1.039361 14.920635 -27.792900 0.023253 -1.681046 0.000001 0.000000 0.000000 
-13.859325 91.104752 -0.599701 7.618233 11.108877 1.398458 5.460089 -0.037208 -2.439579 -3.041138 -0.526846 -5.046612 0.000000 0.000000 0.000000 -3.018656 -0.526802 -5.046133 -31.378132 -7.839142 3.194618 7.437475 -6.215826 -8.380754 -0.000001 0.000000 -0.000000 -6.651219 -13.502815 -6.091311 0.000000 0.000000 0.000000 -14.996700 -4.896500 -0.947549 -42.584307 -87.858752 -39.722983 -6.412348 -11.683252 32.354664 7.606327 8.543213 9.450059 3.340736 18.273237 -8.307522 3.258605 15.361118 8.307783 0.000001 0.000003 0.000002 9.385495 -12.532307 -17.943834 -0.456676 0.479148 -67.294726 0.000000 0.000000 -0.000002 6.681309 -7.296594 -27.192419 0.761521 0.599153 -65.017848 -0.000000 0.000001 0.000002 3.760720 1.571949 -36.631435 0.586857 0.249955 -64.288835 0.000000 0.000003 0.000002 -3.225684 7.314129 -40.753860 0.537504 0.198099 -74.478746 -0.000000 -0.000001 0.000001 -6.909962 14.522403 2.667815 0.000000 0.000000 0.000000 1.310046 1.516595 17.537412 -81.053821 106.434940 76.989257 -7.877155 10.600859 -37.032579 -9.477027 7.901164 -0.153670 10.407059 -38.024869 1.059105 7.212328 -33.175407 -13.741476 0.000000 -0.000001 0.000002 13.011622 7.371695 28.563931 -0.503262 -0.207297 58.940352 -0.000001 -0.000002 -0.000005 5.888727 7.219006 41.809784 0.608755 -0.631223 63.099972 0.000004 -0.000001 -0.000001 0.410265 -1.543618 55.160912 0.420230 -0.320958 66.780064 0.000001 -0.000000 -0.000000 -4.209872 -10.311228 61.845348 0.465991 -0.212371 81.893524 0.000002 0.000001 0.000002 -51.974284 -9.389107 -3.652528 27.949902 -17.266059 -1.811339 12.688190 -2.482981 -8.378202 -0.410659 1.247917 0.618656 -0.000000 0.000000 0.000000 -12.546443 -8.118611 1.852440 47.477167 -17.290233 -11.835791 -24.179368 2.023307 15.275684 -28.360329 0.344985 -1.823177 -0.000001 0.000000 0.000000 
